<svg xmlns="http://www.w3.org/2000/svg" xmlns:xlink="http://www.w3.org/1999/xlink" viewBox="0 0 796 719.59"><defs><style>.cls-1{fill:none;}.cls-2{isolation:isolate;}.cls-3,.cls-4{opacity:0.6;}.cls-3{fill:url(#linear-gradient);}.cls-4{fill:url(#linear-gradient-2);}.cls-5{fill:url(#linear-gradient-3);}.cls-6{fill:url(#linear-gradient-4);}.cls-7{fill:#f4ab37;}.cls-8{fill:#ff7c5c;}.cls-9{fill:#ffea94;}.cls-10{fill:#fff;}.cls-11{fill:#90a5d3;}.cls-12{fill:url(#linear-gradient-5);}.cls-13{fill:#f2f2f2;}.cls-14{fill:#ccc;}.cls-15{fill:#e0ebfc;}.cls-16{fill:url(#linear-gradient-6);}.cls-17{fill:url(#linear-gradient-7);}.cls-18{fill:#acc2e2;}.cls-19{fill:url(#linear-gradient-8);}.cls-20{fill:#93b3d8;}.cls-21{fill:url(#linear-gradient-9);}.cls-22{fill:#0a5fa5;}.cls-23{opacity:0.3;fill:url(#linear-gradient-10);}.cls-24{clip-path:url(#clip-path);}.cls-25{fill:url(#linear-gradient-11);}.cls-26{fill:url(#linear-gradient-12);}.cls-27{fill:#65b6c4;}.cls-28{fill:url(#linear-gradient-13);}.cls-29{fill:#999;}.cls-30{fill:#bbfffc;}.cls-31{opacity:0.85;mix-blend-mode:overlay;fill:url(#linear-gradient-14);}.cls-32{opacity:0.58;}.cls-33{fill:url(#linear-gradient-15);}.cls-34{fill:url(#linear-gradient-16);}.cls-35{fill:#2442b2;}.cls-36{fill:#608aff;}.cls-37{fill:url(#linear-gradient-17);}.cls-38{fill:url(#linear-gradient-18);}.cls-39{fill:url(#linear-gradient-19);}.cls-40{fill:#d5d5e2;}.cls-41{fill:#cccfdd;}.cls-42{fill:url(#linear-gradient-20);}.cls-43{fill:#1c1c1c;}.cls-44{fill:#18284c;}.cls-45{fill:#111193;}.cls-46{fill:#1e16b5;}.cls-47{fill:#ffc4a4;}.cls-48{fill:#4c280f;}.cls-49{fill:#f4f9f9;}.cls-50{fill:#dae3ea;}.cls-51{fill:url(#linear-gradient-21);}.cls-52{fill:#f8fbff;}.cls-53{fill:url(#linear-gradient-22);}.cls-54{clip-path:url(#clip-path-2);}.cls-55{fill:#f2af81;}.cls-56{fill:url(#linear-gradient-23);}.cls-57{fill:url(#linear-gradient-24);}.cls-58{fill:url(#linear-gradient-25);}.cls-59{fill:#1c3ba0;}.cls-60{fill:#3040b2;}.cls-61{fill:#c0cbe2;}</style><linearGradient id="linear-gradient" x1="174.21" y1="186.24" x2="220.92" y2="260.48" gradientUnits="userSpaceOnUse"><stop offset="0" stop-color="#ffe56f"/><stop offset="0.79" stop-color="#ffe56f" stop-opacity="0"/></linearGradient><linearGradient id="linear-gradient-2" x1="186.27" y1="205.4" x2="210.27" y2="243.54" gradientUnits="userSpaceOnUse"><stop offset="0" stop-color="#ffe56f"/><stop offset="0.74" stop-color="#ffe56f" stop-opacity="0"/></linearGradient><linearGradient id="linear-gradient-3" x1="200.19" y1="43.29" x2="200.19" y2="233.35" gradientUnits="userSpaceOnUse"><stop offset="0" stop-color="#ffe56f"/><stop offset="1" stop-color="#ffb000"/></linearGradient><linearGradient id="linear-gradient-4" x1="200.33" y1="233.29" x2="200.33" y2="106.79" gradientUnits="userSpaceOnUse"><stop offset="0" stop-color="#ffc700"/><stop offset="1" stop-color="#ffa600"/></linearGradient><linearGradient id="linear-gradient-5" x1="345.65" y1="181.29" x2="229" y2="491.54" gradientUnits="userSpaceOnUse"><stop offset="0" stop-color="#fff"/><stop offset="1" stop-color="#d5e4f0"/></linearGradient><linearGradient id="linear-gradient-6" x1="131.48" y1="323.37" x2="222.27" y2="492.33" gradientUnits="userSpaceOnUse"><stop offset="0" stop-color="#07478a"/><stop offset="1" stop-color="#282d62"/></linearGradient><linearGradient id="linear-gradient-7" x1="153.05" y1="308.36" x2="464.88" y2="308.36" gradientUnits="userSpaceOnUse"><stop offset="0" stop-color="#e0ebfc"/><stop offset="0" stop-color="#ecf4fc"/><stop offset="1" stop-color="#e0ebfc"/></linearGradient><linearGradient id="linear-gradient-8" x1="370.25" y1="224.82" x2="246.39" y2="492.38" gradientUnits="userSpaceOnUse"><stop offset="0" stop-color="#fff"/><stop offset="1" stop-color="#f1f8fc"/></linearGradient><linearGradient id="linear-gradient-9" x1="387.92" y1="170.55" x2="51.81" y2="378.59" gradientUnits="userSpaceOnUse"><stop offset="0" stop-color="#eef3ff"/><stop offset="1" stop-color="#c7dbf2"/></linearGradient><linearGradient id="linear-gradient-10" x1="864.35" y1="600.33" x2="150.04" y2="502.93" gradientUnits="userSpaceOnUse"><stop offset="0" stop-color="#fff"/><stop offset="1" stop-color="#adc1de"/></linearGradient><clipPath id="clip-path"><polygon class="cls-1" points="414.41 236.5 350.38 199.29 200.77 285.83 264.8 323.04 414.41 236.5"/></clipPath><linearGradient id="linear-gradient-11" x1="307.01" y1="404.89" x2="307.01" y2="210.25" gradientUnits="userSpaceOnUse"><stop offset="0" stop-color="#519ac7"/><stop offset="1" stop-color="#a7efe7"/></linearGradient><linearGradient id="linear-gradient-12" x1="307.15" y1="275.28" x2="307.15" y2="404.82" gradientUnits="userSpaceOnUse"><stop offset="0" stop-color="#ccc"/><stop offset="1" stop-color="#f2f2f2"/></linearGradient><linearGradient id="linear-gradient-13" x1="307.16" y1="275.28" x2="307.16" y2="404.83" xlink:href="#linear-gradient-11"/><linearGradient id="linear-gradient-14" x1="304.8" y1="346.8" x2="304.8" y2="206.43" gradientUnits="userSpaceOnUse"><stop offset="0.13" stop-color="#66f1f2"/><stop offset="1" stop-color="#bbfffc" stop-opacity="0.2"/></linearGradient><linearGradient id="linear-gradient-15" x1="485.99" y1="558.43" x2="295.72" y2="513.61" gradientUnits="userSpaceOnUse"><stop offset="0" stop-color="#93a5cc" stop-opacity="0"/><stop offset="0.58" stop-color="#7d95c2"/></linearGradient><linearGradient id="linear-gradient-16" x1="375.57" y1="2.55" x2="375.57" y2="161.64" gradientUnits="userSpaceOnUse"><stop offset="0" stop-color="#607bff"/><stop offset="1" stop-color="#3742c4"/></linearGradient><linearGradient id="linear-gradient-17" x1="385.97" y1="618.12" x2="395.59" y2="550.78" gradientUnits="userSpaceOnUse"><stop offset="0" stop-color="#8092b1"/><stop offset="0.4" stop-color="#63779f"/><stop offset="0.75" stop-color="#516794"/><stop offset="1" stop-color="#4b6190"/></linearGradient><linearGradient id="linear-gradient-18" x1="328.97" y1="562.76" x2="365.12" y2="562.76" xlink:href="#linear-gradient-17"/><linearGradient id="linear-gradient-19" x1="455.92" y1="581.23" x2="440.88" y2="524.72" xlink:href="#linear-gradient-17"/><linearGradient id="linear-gradient-20" x1="407.49" y1="561.54" x2="488.66" y2="499.31" gradientUnits="userSpaceOnUse"><stop offset="0" stop-color="#7082a0"/><stop offset="1" stop-color="#bcc6db"/></linearGradient><linearGradient id="linear-gradient-21" x1="348.31" y1="532.93" x2="406.74" y2="532.93" gradientUnits="userSpaceOnUse"><stop offset="0" stop-color="#6c81a4"/><stop offset="0.18" stop-color="#63789f"/><stop offset="0.66" stop-color="#516794"/><stop offset="1" stop-color="#4b6190"/></linearGradient><linearGradient id="linear-gradient-22" x1="402.47" y1="457.87" x2="419.69" y2="457.87" gradientUnits="userSpaceOnUse"><stop offset="0" stop-color="#e0ebfc"/><stop offset="0.73" stop-color="#acc2e2"/><stop offset="1" stop-color="#e0ebfc"/></linearGradient><clipPath id="clip-path-2"><ellipse class="cls-1" cx="411.08" cy="457.87" rx="8.61" ry="4.6"/></clipPath><linearGradient id="linear-gradient-23" x1="136.27" y1="326.85" x2="99.92" y2="255.14" gradientUnits="userSpaceOnUse"><stop offset="0" stop-color="#608aff" stop-opacity="0"/><stop offset="0.25" stop-color="#608aff" stop-opacity="0.2"/><stop offset="0.55" stop-color="#608aff" stop-opacity="0.41"/><stop offset="0.77" stop-color="#608aff" stop-opacity="0.55"/><stop offset="0.9" stop-color="#608aff" stop-opacity="0.6"/></linearGradient><linearGradient id="linear-gradient-24" x1="136.82" y1="322.98" x2="101.22" y2="252.73" xlink:href="#linear-gradient-23"/><linearGradient id="linear-gradient-25" x1="139.25" y1="130.72" x2="139.25" y2="320.72" xlink:href="#linear-gradient-16"/></defs><title>login_export_2</title><g class="cls-2"><g id="Layer_2" data-name="Layer 2"><g id="Layer_1-2" data-name="Layer 1"><polygon class="cls-3" points="155.95 179.44 241.66 129.47 242.07 271.85 156.35 321.81 155.95 179.44"/><polygon class="cls-4" points="176.88 201.91 220.92 176.23 221.13 249.38 177.09 275.06 176.88 201.91"/><polygon class="cls-5" points="158.69 90.98 241.3 43.29 241.7 185.66 159.09 233.35 158.69 90.98"/><path class="cls-6" d="M241.65,185.68l-82.44,47.6a.08.08,0,0,1-.12-.07L159,190.09h0c.1-1.53,2-30.19,14.82-37.62,1.61-.92,2.81-1.14,3.73-.83a2,2,0,0,1,.41.19,2.78,2.78,0,0,1,.89.79,5.18,5.18,0,0,1,.33.51c.1.19.2.39.29.6s.12.29.17.44l.15.47.15.5a2,2,0,0,1,.06.26c.09.35.17.72.24,1.09,0,.1,0,.2,0,.3.11.66.21,1.37.3,2.1a6.71,6.71,0,0,1,.07.69c0,.32.08.64.12,1l.09,1c0,.37.08.68.1,1,.13,1.05.24,2.06.39,3,0,.35.1.69.16,1,0,.17.06.34.1.51.08.41.14.7.21,1,0,.11,0,.23.09.34a4.36,4.36,0,0,0,.12.46c.1.35.2.68.32,1a7.71,7.71,0,0,0,.46,1.06,1.33,1.33,0,0,0,.09.21,6.24,6.24,0,0,0,.83,1.22,5.08,5.08,0,0,0,.39.41,7.13,7.13,0,0,0,.58.46c1.77,1.14,4.42,1,8.48-1.37,19.27-11.12,1.73-48,26-62,5.7-3.3,9.15-3.69,11.29-2.5a2.7,2.7,0,0,1,.4.25,5.16,5.16,0,0,1,1,.91c.06.07.12.16.19.23s.13.2.2.3a3.37,3.37,0,0,1,.19.32,8,8,0,0,1,.58,1.25,13.35,13.35,0,0,1,.44,1.47c0,.11.07.22.09.33a27.76,27.76,0,0,1,.52,3.3c0,.36.07.66.1,1,0,.46.08.87.12,1.28.12,1.42.22,2.75.39,4,0,.1,0,.21,0,.31a11.86,11.86,0,0,0,.66,2.7,3.89,3.89,0,0,0,.26.58,3.36,3.36,0,0,0,.69.92,2.24,2.24,0,0,0,.43.33,3.78,3.78,0,0,0,.5.22,1.44,1.44,0,0,0,.36.07,3,3,0,0,0,.85,0,5.67,5.67,0,0,0,1.24-.3,5.23,5.23,0,0,0,.57-.23,11.64,11.64,0,0,0,1.27-.64l.16,59.64A.07.07,0,0,1,241.65,185.68Z"/><polygon class="cls-7" points="158.88 90.98 154.5 88.43 154.59 230.75 158.97 233.29 158.88 90.98"/><path class="cls-1" d="M239.69,126.84c.19-.07.38-.14.57-.23a10.23,10.23,0,0,0,1.27-.65l.17,59.65a.12.12,0,0,1,0,.08l-82.44,47.59a.08.08,0,0,1-.13-.07L159,190.09h0c.1-1.53,2-30.19,14.82-37.6,1.61-.93,2.82-1.15,3.73-.84a2.78,2.78,0,0,1,.41.18,2.81,2.81,0,0,1,.89.8,5.71,5.71,0,0,1,.33.52,4.62,4.62,0,0,1,.29.59c.06.14.12.29.17.44s.11.31.16.47.09.33.14.5l.06.26c.09.35.17.72.24,1.1a2.74,2.74,0,0,0,0,.28c.11.67.21,1.38.3,2.11,0,.27.06.48.08.68s.07.65.11,1,.06.64.1,1,.07.7.1,1c.11,1.07.23,2.07.38,3,0,.35.1.69.16,1,0,.17.06.34.1.51.08.42.14.7.21,1l.09.36.12.46c.1.34.2.67.32,1a8.58,8.58,0,0,0,.45,1.07,2.12,2.12,0,0,0,.11.21,7.18,7.18,0,0,0,.81,1.22c.13.14.26.28.4.41a4.21,4.21,0,0,0,.58.45c1.78,1.15,4.42,1,8.48-1.36,19.27-11.13,1.73-48,26-62,5.69-3.28,9.15-3.69,11.3-2.49a3.73,3.73,0,0,1,.39.25,4.59,4.59,0,0,1,1,.91,1.55,1.55,0,0,1,.19.24c.07.09.13.19.2.29a3.37,3.37,0,0,1,.19.32,9,9,0,0,1,.58,1.25,14.24,14.24,0,0,1,.45,1.46c0,.11.05.23.08.34a27.76,27.76,0,0,1,.52,3.3c0,.36.07.66.1,1,0,.47.08.88.12,1.29.12,1.42.22,2.75.39,4,0,.11,0,.22,0,.32a12.41,12.41,0,0,0,.66,2.7,5.3,5.3,0,0,0,.27.59,3.6,3.6,0,0,0,.68.92,3.19,3.19,0,0,0,.43.32,2.81,2.81,0,0,0,.5.22l.37.08a3.26,3.26,0,0,0,.83,0A5.49,5.49,0,0,0,239.69,126.84Z"/><path class="cls-8" d="M218.67,174.61a3,3,0,0,0,1.36-2.17c.1-1-.63-1.41-1.5-.91L173.2,197.7a3.21,3.21,0,0,0-1.61,2.16c-.19,1.13.49,1.65,1.35,1.16l45.73-26.41m-30.21,24.85a3.1,3.1,0,0,0,1.36-2.17c.11-1-.62-1.44-1.5-.93l-15.13,8.73a3.14,3.14,0,0,0-1.58,2.16c-.18,1.14.5,1.65,1.35,1.16l15.5-8.95"/><polygon class="cls-9" points="241.3 43.29 236.91 40.74 154.5 88.41 158.88 90.95 241.3 43.29"/><polygon class="cls-10" points="207.75 88.61 213.76 92.03 201.77 98.95 207.75 88.61"/><path class="cls-10" d="M190.29,98.87c3.79-2.19,6.44-1.18,6.46,3.45,0,4-2.63,9.09-7.28,11.78-4.14,2.39-7,.77-7.24-2.47l4.19-3.41c.1,1.63,1.19,2.52,3,1.46a5.64,5.64,0,0,0,2.78-4.72c0-2.12-1.41-2.36-2.91-1.5a7.06,7.06,0,0,0-2.61,2.9l-4.06.83,2.07-12.36,10.84-6.25v4.36l-7.7,4.45-.74,4.46A9.62,9.62,0,0,1,190.29,98.87Z"/><path class="cls-10" d="M170,107.35a10.56,10.56,0,0,0,5.08-7L179,98.14l.06,21.44-4.51,2.61,0-13.94L170,110.82Z"/><g class="cls-2"><polygon class="cls-11" points="581.58 383.16 214.71 594.99 214.45 508.19 214.42 495.79 570.62 290.14 581.33 283.97 581.58 383.16"/></g><g class="cls-2"><polygon class="cls-12" points="581.29 283.97 570.62 290.14 214.42 495.79 0 371.19 366.89 159.37 581.29 283.97"/></g><path class="cls-13" d="M420.48,335.31a4.79,4.79,0,0,1,4.3,0l17.15,10-4.31,2.49-17.16-10A1.32,1.32,0,0,1,420.48,335.31Z"/><path class="cls-14" d="M413.11,348.22a4.72,4.72,0,0,1,4.3,0l9.69,5.63-4.32,2.49-9.69-5.63A1.32,1.32,0,0,1,413.11,348.22Z"/><path class="cls-13" d="M405.64,343.88a4.75,4.75,0,0,1,4.31,0l7.46,4.34a4.72,4.72,0,0,0-4.3,0,1.32,1.32,0,0,0,0,2.49l-7.47-4.34A1.32,1.32,0,0,1,405.64,343.88Z"/><path class="cls-13" d="M435.32,326.75a4.72,4.72,0,0,1,4.3,0l3.32,1.93a4.77,4.77,0,0,0-4.29,0,1.32,1.32,0,0,0,0,2.5l-3.33-1.94A1.32,1.32,0,0,1,435.32,326.75Z"/><g class="cls-2"><polygon class="cls-15" points="71.54 372.83 232.35 466.28 534.49 291.84 373.68 198.39 71.54 372.83"/><polygon class="cls-16" points="280 438.77 232.35 466.28 71.54 372.83 119.19 345.32 280 438.77"/><polygon class="cls-10" points="376.29 258.36 359.49 248.6 392.32 229.64 409.12 239.41 376.29 258.36"/><polygon class="cls-10" points="324.5 267.56 307.71 257.8 340.54 238.84 357.34 248.6 324.5 267.56"/><polygon class="cls-10" points="394.16 268.75 377.36 258.99 410.19 240.03 426.99 249.79 394.16 268.75"/><polygon class="cls-10" points="412.02 279.13 395.23 269.37 428.06 250.41 444.86 260.17 412.02 279.13"/><polygon class="cls-10" points="360.24 288.33 343.44 278.56 376.28 259.61 393.08 269.37 360.24 288.33"/><polygon class="cls-10" points="429.89 289.52 413.1 279.75 445.93 260.8 462.73 270.56 429.89 289.52"/><polygon class="cls-10" points="395.98 309.1 379.18 299.33 412.02 280.38 428.81 290.14 395.98 309.1"/><polygon class="cls-10" points="344.2 318.29 327.4 308.53 360.24 289.57 377.03 299.33 344.2 318.29"/><polygon class="cls-10" points="292.42 327.49 275.62 317.72 308.44 298.77 325.24 308.53 292.42 327.49"/><polygon class="cls-10" points="362.07 328.68 345.27 318.91 378.1 299.96 394.9 309.72 362.07 328.68"/><path class="cls-15" d="M234,349.64a4.75,4.75,0,0,1,4.31,0,1.32,1.32,0,0,1,0,2.49l-25.13,14.52a4.79,4.79,0,0,1-4.3,0,1.32,1.32,0,0,1,0-2.5Z"/><path class="cls-17" d="M374.46,218.64l.54-.31,89.88,52.23L243.46,398.39l-90.41-52.54L373.92,218.33ZM255.59,307.35l-16.8-9.77L155.2,345.85,172,355.61l83.6-48.26m35.74,20.76-16.8-9.76-83.6,48.27,16.8,9.76,83.6-48.27m-17.87-10.38L256.66,308l-83.6,48.26,16.8,9.76,83.6-48.26m53.61,31.15-16.8-9.76-83.6,48.27,16.8,9.76,83.6-48.27M309.2,338.5l-16.8-9.76L208.8,377l16.8,9.76,83.6-48.26m85.7-28.78L378.1,300l-32.83,19,16.8,9.76,32.83-18.95m14.22-70.31-16.8-9.77-32.83,19,16.8,9.76,32.83-19M341.3,278.56l-16.8-9.76-32.84,19,16.8,9.76,32.84-19m121.43-8-16.8-9.76L413.1,279.75l16.79,9.77,32.84-19m-139.3-2.38-16.8-9.76-32.84,19,16.8,9.76,32.84-19M427,249.79,410.19,240l-32.83,19,16.8,9.76,32.83-19M391.25,229l-16.8-9.76-32.83,19,16.8,9.76,32.83-19M359.16,289l-16.79-9.76-32.84,18.95,16.8,9.77,32.83-19m85.7-28.78-16.8-9.76-32.83,19L412,279.13l32.84-19M377,299.33l-16.79-9.76-32.84,19,16.8,9.76,32.83-19M375.21,259l-16.8-9.77-32.83,19,16.79,9.76L375.21,259m53.61,31.15L412,280.38l-32.84,18.95L396,309.1l32.84-19m-35.74-20.77-16.8-9.76-32.84,18.95,16.8,9.77,32.84-19M357.34,248.6l-16.8-9.76-32.83,19,16.79,9.76,32.84-19M411,279.75,394.15,270l-32.84,19,16.8,9.76,32.84-19m-103.58,18.4-16.8-9.76-32.82,18.95,16.8,9.76,32.82-19M289.5,287.77,272.71,278l-32.83,19,16.8,9.76,32.82-19m35.74,20.76-16.8-9.76-32.82,19,16.8,9.77,32.82-19M361,329.3l-16.8-9.76-32.82,18.95,16.79,9.76L361,329.3m-17.87-10.38-16.8-9.76-32.82,18.95,16.8,9.76,32.82-18.95"/><polygon class="cls-10" points="310.29 337.87 293.49 328.11 326.31 309.16 343.11 318.92 310.29 337.87"/><path class="cls-15" d="M182.57,337.41a4.78,4.78,0,0,1,4.31,0,1.32,1.32,0,0,1,0,2.5L177,345.61a4.75,4.75,0,0,1-4.31,0,1.32,1.32,0,0,1,0-2.49Z"/><path class="cls-10" d="M172,355.61l-16.79-9.76,83.59-48.27,16.8,9.77Zm.69-12.49a1.32,1.32,0,0,0,0,2.49,4.75,4.75,0,0,0,4.31,0l9.88-5.71a1.32,1.32,0,0,0,0-2.5,4.78,4.78,0,0,0-4.31,0l-9.89,5.71"/><path class="cls-18" d="M227.66,332.2a4.79,4.79,0,0,1,4.3,0,1.32,1.32,0,0,1,0,2.49l-37,21.36a4.72,4.72,0,0,1-4.3,0,1.32,1.32,0,0,1,0-2.49Z"/><path class="cls-10" d="M189.86,366l-16.8-9.76L256.66,308l16.8,9.76Zm.8-12.43a1.32,1.32,0,0,0,0,2.49,4.72,4.72,0,0,0,4.3,0l37-21.36a1.32,1.32,0,0,0,0-2.49,4.79,4.79,0,0,0-4.3,0l-37,21.36"/><path class="cls-15" d="M236.07,368.5a4.75,4.75,0,0,1,4.31,0,1.32,1.32,0,0,1,0,2.5l-9.88,5.7a4.78,4.78,0,0,1-4.31,0,1.32,1.32,0,0,1,0-2.49Z"/><path class="cls-10" d="M225.6,386.76,208.8,377l83.6-48.26,16.8,9.76Zm.58-12.55a1.32,1.32,0,0,0,0,2.49,4.78,4.78,0,0,0,4.31,0l9.88-5.7a1.32,1.32,0,0,0,0-2.5,4.75,4.75,0,0,0-4.31,0l-9.89,5.71"/><path class="cls-18" d="M353.35,381.71l-.14-4.74a95.33,95.33,0,0,1,27.56,3.62l-27,15.58Z"/><path class="cls-18" d="M284.15,394.15a4.72,4.72,0,0,1,4.3,0,1.32,1.32,0,0,1,0,2.49L267.05,409a4.72,4.72,0,0,1-4.3,0,1.32,1.32,0,0,1,0-2.49Z"/><path class="cls-15" d="M318.82,390.23c9.57-5.53,22-8.37,34.53-8.52l.44,14.46-45.64,26.35C300.13,411.86,303.69,399,318.82,390.23Z"/><path class="cls-19" d="M373.68,198.39,119.2,345.32,280,438.77l28.14-16.25c-8-10.66-4.46-23.56,10.67-32.29,9.57-5.53,22-8.37,34.53-8.52l-.14-4.74a95.33,95.33,0,0,1,27.56,3.62l42-24.25-17.16-10a1.32,1.32,0,0,1,0-2.49,4.75,4.75,0,0,1,4.31,0l7.46,4.34,9.69,5.63,10.52-6.08-17.16-10a1.32,1.32,0,0,1,0-2.49,4.79,4.79,0,0,1,4.3,0l17.15,10,10.52-6.07-17.16-10a1.32,1.32,0,0,1,0-2.49,4.72,4.72,0,0,1,4.3,0l3.32,1.93,13.83,8,10.52-6.08-17.16-10a1.32,1.32,0,0,1,0-2.49,4.77,4.77,0,0,1,4.29,0l11.48,6.67,5.68,3.3,10.53-6.07-17.16-10a1.32,1.32,0,0,1,0-2.49,4.7,4.7,0,0,1,4.29,0L485.43,319l1,.59,48.05-27.75ZM288.44,396.64,267.05,409a4.72,4.72,0,0,1-4.3,0,1.32,1.32,0,0,1,0-2.49l21.38-12.34a4.72,4.72,0,0,1,4.3,0,1.32,1.32,0,0,1,0,2.49M416,323,392.77,336.4a4.72,4.72,0,0,1-4.3,0,1.32,1.32,0,0,1,0-2.49l23.25-13.42a4.72,4.72,0,0,1,4.3,0,1.32,1.32,0,0,1,0,2.49M243.46,398.39l-90.41-52.54L373.92,218.33l.54.31.54-.31,89.88,52.23L243.46,398.39"/><polygon class="cls-10" points="341.62 238.22 358.42 247.98 391.25 229.02 374.45 219.26 341.62 238.22"/><polygon class="cls-10" points="342.37 277.94 325.57 268.18 358.41 249.22 375.21 258.99 342.37 277.94"/><polygon class="cls-10" points="290.59 287.14 273.79 277.38 306.63 258.42 323.43 268.18 290.59 287.14"/><polygon class="cls-10" points="308.46 297.52 291.66 287.76 324.5 268.8 341.3 278.56 308.46 297.52"/><polygon class="cls-10" points="378.11 298.71 361.31 288.95 394.15 269.99 410.95 279.75 378.11 298.71"/><polygon class="cls-10" points="256.68 306.72 239.88 296.95 272.71 278 289.5 287.77 256.68 306.72"/><polygon class="cls-10" points="326.33 307.91 309.53 298.14 342.37 279.19 359.17 288.95 326.33 307.91"/><polygon class="cls-10" points="274.55 317.1 257.75 307.34 290.57 288.39 307.37 298.15 274.55 317.1"/><path class="cls-20" d="M481.13,319a4.72,4.72,0,0,1,4.3,0l1,.59-4.31,2.49-1-.59A1.32,1.32,0,0,1,481.13,319Z"/><path class="cls-20" d="M461.61,324.85a4.75,4.75,0,0,1,4.31,0l5.68,3.3-4.31,2.49-5.69-3.3A1.32,1.32,0,0,1,461.61,324.85Z"/><path class="cls-18" d="M411.73,320.49a4.72,4.72,0,0,1,4.3,0,1.32,1.32,0,0,1,0,2.49L392.77,336.4a4.72,4.72,0,0,1-4.3,0,1.32,1.32,0,0,1,0-2.49Z"/><path class="cls-20" d="M438.65,328.68a4.77,4.77,0,0,1,4.29,0l13.83,8-4.32,2.49-13.83-8A1.32,1.32,0,0,1,438.65,328.68Z"/><polygon class="cls-10" points="328.15 348.25 311.36 338.49 344.18 319.54 360.98 329.3 328.15 348.25"/><path class="cls-21" d="M373.67,198.38,119.19,345.32,71.54,372.83l-15-8.73c-3.55-2.06-3.52-5.41,0-7.47l289.19-167a14.17,14.17,0,0,1,12.9,0Z"/><path class="cls-10" d="M134.57,365.13a4.7,4.7,0,0,1,4.29,0,1.32,1.32,0,0,1,0,2.49l-28.94,16.71a4.77,4.77,0,0,1-4.32,0,1.32,1.32,0,0,1,0-2.5Z"/><path class="cls-22" d="M168.38,407.58a4.79,4.79,0,0,1,4.3,0,1.32,1.32,0,0,1,0,2.5l-9.88,5.7a4.78,4.78,0,0,1-4.31,0,1.32,1.32,0,0,1,0-2.49Z"/><path class="cls-22" d="M106,362.05a4.78,4.78,0,0,1,4.31,0,1.32,1.32,0,0,1,0,2.49L93,374.51a4.72,4.72,0,0,1-4.3,0c-1.18-.68-1.17-1.8,0-2.49Z"/><path class="cls-10" d="M207.73,376.38l-16.8-9.76,83.6-48.27,16.8,9.76Zm1.14-12.23a1.32,1.32,0,0,0,0,2.49,4.76,4.76,0,0,0,4.3,0l25.13-14.52a1.32,1.32,0,0,0,0-2.49,4.78,4.78,0,0,0-4.31,0l-25.14,14.51"/><path class="cls-22" d="M140.86,382.32a4.78,4.78,0,0,1,4.31,0,1.33,1.33,0,0,1,0,2.5l-17.26,10a4.76,4.76,0,0,1-4.3,0,1.32,1.32,0,0,1,0-2.5Z"/><polygon class="cls-10" points="243.47 397.15 226.67 387.39 310.27 339.12 327.07 348.88 243.47 397.15"/><path class="cls-22" d="M164.43,389.81a4.75,4.75,0,0,1,4.31,0,1.32,1.32,0,0,1,0,2.49l-22.62,13.06a4.78,4.78,0,0,1-4.31,0,1.32,1.32,0,0,1,0-2.5Z"/><path class="cls-18" d="M92.83,344.4a7.09,7.09,0,0,1,6.45,0c1.78,1,1.76,2.7,0,3.74a7.12,7.12,0,0,1-6.45,0C91,347.1,91,345.43,92.83,344.4Z"/><path class="cls-18" d="M82,350.63a7.1,7.1,0,0,1,6.44,0c1.78,1,1.77,2.7,0,3.74a7.1,7.1,0,0,1-6.44,0C80.24,353.33,80.25,351.66,82,350.63Z"/><path class="cls-18" d="M71.25,356.86a7.1,7.1,0,0,1,6.44,0c1.78,1,1.77,2.7,0,3.73a7,7,0,0,1-6.44,0C69.45,359.56,69.46,357.89,71.25,356.86Z"/></g><polygon class="cls-23" points="796 507.77 429.11 719.59 214.71 594.99 581.58 383.16 796 507.77"/><g class="cls-24"><polygon class="cls-25" points="264.51 259.09 349.11 210.25 349.52 356.05 264.93 404.89 264.51 259.09"/><path class="cls-26" d="M349.47,356.07l-84.42,48.74a.09.09,0,0,1-.13-.07l-.13-44.16h0c.11-1.57,2-30.92,15.19-38.52,1.64-.94,2.88-1.17,3.82-.85a2.66,2.66,0,0,1,.42.19,2.88,2.88,0,0,1,.9.81,4.93,4.93,0,0,1,.35.53c.1.19.2.39.29.61s.13.29.18.44l.15.49.15.51c0,.09,0,.18.07.26.09.36.16.74.24,1.13,0,.1,0,.2.05.3.12.68.22,1.4.31,2.15,0,.28.06.49.07.7l.12,1c0,.33.06.66.1,1s.08.7.1,1c.13,1.08.24,2.11.4,3.1.05.36.1.7.16,1.06,0,.17.07.34.1.52.08.42.14.72.22,1,0,.11.05.24.09.36s.08.31.13.47c.1.35.2.69.32,1a8.79,8.79,0,0,0,.47,1.08.88.88,0,0,0,.1.22,6.75,6.75,0,0,0,.84,1.24,3.28,3.28,0,0,0,.41.42,6,6,0,0,0,.58.48c1.82,1.17,4.54,1,8.69-1.41,19.73-11.38,1.77-49.11,26.65-63.47,5.83-3.37,9.37-3.78,11.56-2.56l.41.26a4.79,4.79,0,0,1,1,.93l.19.24.21.3a3.79,3.79,0,0,1,.2.34,8.74,8.74,0,0,1,.59,1.27,14.64,14.64,0,0,1,.45,1.5c0,.12.07.23.09.35a28.93,28.93,0,0,1,.54,3.37c0,.37.06.68.1,1s.08.89.11,1.31c.13,1.45.23,2.81.41,4.06,0,.1,0,.22.05.32a12.24,12.24,0,0,0,.68,2.76,2.74,2.74,0,0,0,.27.6,3.3,3.3,0,0,0,.7.94,2.73,2.73,0,0,0,.44.34c.16.08.33.16.51.23a2.2,2.2,0,0,0,.37.07,2.8,2.8,0,0,0,.87,0,5.36,5.36,0,0,0,1.27-.3l.59-.23a14.53,14.53,0,0,0,1.3-.66l.16,61.08A.08.08,0,0,1,349.47,356.07Z"/><polygon class="cls-27" points="264.71 259.09 260.22 256.48 260.31 402.22 264.8 404.83 264.71 259.09"/><path class="cls-28" d="M347.46,295.81c.19-.07.39-.14.59-.23a13.47,13.47,0,0,0,1.29-.67l.18,61.09a.08.08,0,0,1,0,.07l-84.43,48.74a.08.08,0,0,1-.13-.07l-.12-44.16h0c.1-1.57,2-30.92,15.18-38.51,1.64-.95,2.88-1.18,3.82-.86a4,4,0,0,1,.42.18,3.06,3.06,0,0,1,.91.82,6.27,6.27,0,0,1,.34.53c.1.19.2.39.29.61s.12.29.18.45l.16.48c0,.17.1.34.14.51s.05.18.07.27c.09.35.16.73.24,1.12,0,.1,0,.2.05.3.12.68.22,1.4.31,2.15,0,.28,0,.49.08.7s.07.67.11,1,.07.66.1,1,.07.71.11,1c.11,1.09.23,2.12.38,3.11.05.36.11.71.17,1.06,0,.17.07.35.1.52.08.43.15.72.22,1l.09.37.12.47c.1.35.21.69.33,1a10.81,10.81,0,0,0,.46,1.09c0,.07.07.15.11.22a6.58,6.58,0,0,0,.84,1.24,5.49,5.49,0,0,0,.4.43,5.41,5.41,0,0,0,.6.46c1.82,1.17,4.52,1,8.68-1.4,19.73-11.39,1.77-49.11,26.65-63.47,5.83-3.37,9.37-3.78,11.57-2.56.14.08.27.17.4.26a4.79,4.79,0,0,1,1,.93l.19.24.21.3.2.33a9.4,9.4,0,0,1,.59,1.28c.21.6.34,1,.46,1.5,0,.11.05.23.08.35a31.22,31.22,0,0,1,.54,3.37c0,.38.07.68.1,1,0,.48.08.9.11,1.32.13,1.45.24,2.82.41,4.06,0,.11,0,.21.05.32a13.55,13.55,0,0,0,.67,2.77c.09.21.18.41.28.6a3.6,3.6,0,0,0,.7.94,2.66,2.66,0,0,0,.44.33,2.31,2.31,0,0,0,.51.22,2.11,2.11,0,0,0,.38.09,3.42,3.42,0,0,0,.85,0A5.27,5.27,0,0,0,347.46,295.81Z"/><path class="cls-29" d="M325.94,344.73a3.15,3.15,0,0,0,1.39-2.22c.1-1-.65-1.45-1.54-.93l-46.42,26.8a3.26,3.26,0,0,0-1.65,2.2c-.19,1.17.51,1.7,1.38,1.19l46.84-27M295,370.18a3.17,3.17,0,0,0,1.39-2.23c.11-1-.63-1.47-1.54-.95L279.36,376a3.17,3.17,0,0,0-1.62,2.2c-.18,1.17.51,1.69,1.38,1.19L295,370.18"/><polygon class="cls-30" points="349.11 210.25 344.62 207.64 260.22 256.45 264.71 259.06 349.11 210.25"/><path class="cls-10" d="M288.23,272.27l2.74-1.59v4l-2.74,1.59v4.11l-4.19,2.42v-4.11l-7.94,4.58v-4.87l7.11-14.9,5-2.88Zm-4.2,2.42v-6.51l-4.3,9,4.31-2.49"/><path class="cls-10" d="M295.71,270.12c1.49-.86,2.73-.18,2.73,1.53a6.1,6.1,0,0,1-2.71,4.71c-1.49.86-2.71.1-2.71-1.57A5.92,5.92,0,0,1,295.71,270.12Z"/><path class="cls-10" d="M313.21,246.2v3.72L309,256.14c2.67-1.29,4.84-.17,4.85,3.24s-2.5,8.13-6.74,10.57c-4,2.31-6.53.82-6.84-2.39l4-3.2c.08,1.69,1.14,2.45,2.77,1.51a5.13,5.13,0,0,0,2.56-4.17c0-1.9-1.28-2-2.5-1.26a6.94,6.94,0,0,0-1.55,1.35l-1.79-2.12,4.22-6.45-7.18,4.15v-4Z"/><path class="cls-10" d="M328.75,241.87l-4.55,10c1.49,1.56,3.21,3.45,4.73,5l-4.71,2.72-2.44-2.85c-.71,1.63-1.7,4-2.41,5.65L315,265l4.52-10.15-4.64-4.93,4.73-2.73,2.38,2.77,2.3-5.46Z"/><polygon class="cls-31" points="260.25 345.34 264.8 348.02 349.38 299.08 349.11 210.25 344.62 207.64 260.22 256.48 260.25 345.34"/></g><g class="cls-32"><polygon class="cls-33" points="478.5 590.23 407.59 631.99 328.97 584.54 352.93 571.61 313.54 537.61 313.23 439.29 330.07 429.67 339.08 522.87 382.75 554.4 399.85 544.51 478.5 590.23"/></g><polygon class="cls-34" points="334.06 50.24 416.67 2.55 417.07 113.94 334.47 161.63 334.06 50.24"/><polygon class="cls-35" points="334.26 50.24 329.87 47.69 329.96 159.03 334.34 161.57 334.26 50.24"/><path class="cls-36" d="M394,102.89a3,3,0,0,0,1.36-2.16c.11-1-.63-1.42-1.5-.92L348.57,126a3.17,3.17,0,0,0-1.6,2.16c-.2,1.13.48,1.65,1.34,1.16L394,102.89"/><path class="cls-36" d="M394,79.9a3.08,3.08,0,0,0,1.36-2.17c.11-1-.63-1.42-1.5-.92L348.57,103a3.17,3.17,0,0,0-1.6,2.16c-.2,1.13.48,1.65,1.34,1.16L394,79.9m-30.21,24.84a3,3,0,0,0,1.36-2.17c.11-1-.62-1.44-1.5-.93l-15.13,8.74a3.13,3.13,0,0,0-1.58,2.15c-.18,1.14.5,1.65,1.35,1.16l15.5-9"/><polygon class="cls-36" points="416.67 2.55 412.29 0 329.87 47.67 334.26 50.21 416.67 2.55"/><path class="cls-10" d="M353.21,56c3.78-2.18,6.13-.68,6.14,2.69,0,2.46-1.11,5.13-3.24,7.78l-3.13,4a7,7,0,0,0-1.1,1.91l7.61-4.4,0,3.86L347,79.06a15.62,15.62,0,0,1,3.85-10.59l2.7-3.38c1.3-1.65,1.79-2.71,1.79-4s-.71-1.83-2.22-1a4.65,4.65,0,0,0-2.3,4.11,4.12,4.12,0,0,0,.15,1.1l-3.76,2.13a6.5,6.5,0,0,1-.15-1.49A12.3,12.3,0,0,1,353.21,56Z"/><path class="cls-10" d="M364.34,63.31c1.43-.82,2.61-.17,2.62,1.48a5.88,5.88,0,0,1-2.61,4.51c-1.43.82-2.6.09-2.6-1.51A5.71,5.71,0,0,1,364.34,63.31Z"/><path class="cls-10" d="M376.76,49.2c3.36-1.94,5.52-.55,5.53,3.13,0,3.88-2.65,8.32-6.49,10.53s-6.86.69-6.87-4.75a19.49,19.49,0,0,1,9.47-16.62,6.94,6.94,0,0,1,3.42-1.18l-1.06,4.36a7.39,7.39,0,0,0-2.58.88,10.72,10.72,0,0,0-5.33,7.91A9.31,9.31,0,0,1,376.76,49.2Zm-1,9.84a5.25,5.25,0,0,0,2.59-4.24c0-1.73-1.17-2.11-2.6-1.29a5.19,5.19,0,0,0-2.55,4.26c0,1.65,1.15,2.08,2.56,1.27"/><path class="cls-10" d="M396.46,36l-4.35,9.63c1.44,1.49,3.09,3.31,4.55,4.8L392.13,53l-2.36-2.73c-.68,1.56-1.61,3.86-2.29,5.41l-4.26,2.46,4.33-9.75-4.44-4.72L387.67,41,390,43.69l2.2-5.24Z"/><polygon class="cls-37" points="387.05 549.89 387.41 619.77 394.45 619.37 401.36 553.33 387.05 549.89"/><polygon class="cls-38" points="354.01 539.24 365.12 547.08 333.76 586.28 328.97 584.54 354.01 539.24"/><polygon class="cls-39" points="432.93 529.41 456.36 584.2 460.67 581.14 448.99 520.59 432.93 529.41"/><path class="cls-40" d="M400.16,492.78s-.61-4.9,8-7.21c0,0,20.1,12.32,30.53,14.58,10.9,2.37,19.89,7.26,18.06,10.37-.9,1.52-1.2,6.81-9,6.52S417.11,510,400.16,492.78Z"/><path class="cls-41" d="M396.39,560.69c-2.57-.32-44.27-28.84-45.35-31.31s41.18-36.53,48.89-35,48.38,34.84,45.09,36.39S412.89,562.69,396.39,560.69Z"/><path class="cls-42" d="M493.3,495.69S463,534.78,451.91,540.64c0,0-38.05,22.51-53.57,26.21,0,0,32.28-29,35.68-37.63S486.21,497.54,493.3,495.69Z"/><path class="cls-43" d="M319.2,404.69s-.24-6.94,3.93-8.33c0,0,3.7-2.55,5.32,3s4.63,11.1,4.39,14.8-.66,4.63,0,7.64-5.85,7.86-8.63,4.16-4.81-3-5-11.34S319.89,412.09,319.2,404.69Z"/><path class="cls-44" d="M412,460.48s2.13-3.06,6.57-1.7a4.31,4.31,0,0,1,3.24,5.41s-.43,2-3.58,3.36-3.16-.36-5.75.39-1.29,2.55-3.89,1.57S409.21,459,412,460.48Z"/><path class="cls-44" d="M471.75,479.06s5.85.23,6.63,5.14-.67,13.12-7,14.11-21.42,7.09-29.79,5.24-18.5-29.84-26.57-34.66c0,0,1.36-8.83,6.37-7.27s20.43,22.56,22.66,25.39C444.07,487,462.8,478.31,471.75,479.06Z"/><path class="cls-43" d="M317.49,420.68s-.26-.59-2.32-7.93a16.59,16.59,0,0,0-3.25-8.29s-1.86-4.2-5.29-1.93-2.37,8.18-2.1,12.48.83,9.46.57,12,.26,7.6,3.43,7.34,9,0,9,0a10.28,10.28,0,0,1,0-8.11C319.42,422.25,317.49,420.68,317.49,420.68Z"/><path class="cls-45" d="M323.33,424.74s-.56-9.48,8.9-6c0,0,2.08,1.35,8.31,7.28,0,0,12.22,14.6,24.33,28,0,0,5-1,7.18,7.16a6.53,6.53,0,0,0,.59,1.14c3.8,7.62,30.62,58.59,30.62,58.59s-8.76,12.71-18.16,10.67c-12.46-2.71-23.94-56.4-25.5-59.79A28.51,28.51,0,0,0,354,464c-1.9-2-17.38-22.79-23.61-29.06S329.9,431.34,323.33,424.74Z"/><path class="cls-46" d="M312.88,434s-2.81-10.93,4.7-10.93c0,0,1.28,1.53,9.37,5.48,0,0,24.58,13.71,40.8,23.2,0,0,5.71-3.52,10.16,3.77a6.76,6.76,0,0,0,.92.94c6,6.29,47.6,48,47.6,48s-5.79,14.82-16.16,15.54c-13.75.95-40-47.75-42.56-50.59s-6.17-3.4-8.7-4.82-29.77-22-37.95-26.27Z"/><path class="cls-44" d="M442.1,485.73c-1.4.5,1.79-2.6-14.87,8.11s-20.39,9.1-29.63,19.46-4.43,1.75-7.61,6.68,4.89,10.48,4.89,10.48,4,9.87,11.68,5.55,33.55-19.12,39.75-22.83,28.78-18.81,29.22-23.13c0,0,3.56-3.91-5.73-5.37s-8.71-5.73-18.2-2.34-3.82.77-9.5,3.39"/><path class="cls-47" d="M459.89,448.45s10,4.08,13,7.78,7,6.3,5.19,13-7.41,11.85-12.23,16.3-4.21,5.89-3.3,8.87c0,0-13,11.54-15.71-2.47,0,0,4.89-7.61-.62-10.48,0,0-3.34-13.34,0-20S451.74,450.67,459.89,448.45Z"/><path class="cls-48" d="M444.09,453s-.92,10.88,5.38,11.62,5.42,3,5.42,3a32.32,32.32,0,0,1,0,8.23s1.06,2.32,2.54-1.56c0,0,3.06-2.46,3.24.5,0,0,.91,2-3.57,7.65-2.69,3.38,7.59,5.19,7.59,5.19s6.44-2.2,12.92-14.69-10-24.08-10-24.08,1.49,2.59.74,3.89c0,0-1.85-6.48-17.59-12.41,0,0-9.1,10.1-3.91,12.32C446.87,452.6,447.61,453.9,444.09,453Z"/><path class="cls-49" d="M483.86,489.81a9.65,9.65,0,0,1,9.44,5.88c.7,1.6-46,29.83-59.28,33.53,0,0-8.77-3.44-8-6.47C426,522.75,471.07,493.76,483.86,489.81Z"/><path class="cls-50" d="M426,522.75s-24.13,28.78-33.27,24.36c-1.28-.61-24.7-10.15-38.9-22.5,0,0-5.65-3.07-5.76,0s-1,7.14,2.05,10.81,29.3,31.13,41.33,31.43-1.65.62,6.89,0,36.29-32.07,35.68-37.63S432.25,523.38,426,522.75Z"/><path class="cls-51" d="M348.31,523.8s-.24-6.8,8.59-6.61c0,0,20.11,12.32,30.54,14.58,10.9,2.37,20.92,9.19,19.09,12.3-.9,1.52-2.23,4.88-10,4.59S362.27,539.22,348.31,523.8Z"/><path class="cls-47" d="M343.33,509.08a5.45,5.45,0,0,1,5.55-3.92c4.64,0,4.94,3.92,4.94,3.92s.31,2-2.16,4.41-3.08.79-5.24,2.4-.31,4.7-3.09,4.7S340.25,508.68,343.33,509.08Z"/><path class="cls-44" d="M426,496.49s9.3-1.43,11.77,2.89,2.62,12.65-2.93,15.81-30.69,20.92-39.18,22.15-37.48-18.65-46.73-20.3c0,0-3.39-10,3.71-10.23,5.25-.16,39.63,11,42.72,12.85C395.31,519.66,417.31,499,426,496.49Z"/><path class="cls-52" d="M401.28,457.87c0,6.23,4.39,12.77,9.8,12.77s9.8-6.54,9.8-12.77Z"/><ellipse class="cls-15" cx="411.08" cy="457.87" rx="9.8" ry="5.64"/><ellipse class="cls-53" cx="411.08" cy="457.87" rx="8.61" ry="4.6"/><g class="cls-54"><ellipse class="cls-55" cx="411.08" cy="460.6" rx="8.61" ry="4.6"/></g><path class="cls-47" d="M418.89,459.66s-5.08,4.46-4,6,6.47-4.19,7.65-3.8S422.86,458.45,418.89,459.66Z"/><polygon class="cls-56" points="93.71 285.96 180.63 235.73 181.31 371.79 94.11 422.31 93.71 285.96"/><polygon class="cls-57" points="114.79 270.17 160.6 243.69 161.28 379.75 115.19 406.51 114.79 270.17"/><polygon class="cls-58" points="97.75 178.41 180.35 130.72 180.75 273.09 98.03 320.72 97.75 178.41"/><polygon class="cls-59" points="97.94 178.41 93.56 175.86 93.64 318.17 98.03 320.72 97.94 178.41"/><path class="cls-36" d="M157.73,262a3.1,3.1,0,0,0,1.36-2.17c.1-1-.63-1.42-1.51-.91l-45.33,26.17a3.18,3.18,0,0,0-1.6,2.15c-.2,1.14.49,1.66,1.34,1.16L157.73,262m-30.22,24.84a3,3,0,0,0,1.36-2.17c.11-1-.61-1.43-1.5-.92l-15.13,8.73a3.17,3.17,0,0,0-1.58,2.16c-.18,1.13.5,1.64,1.35,1.15l15.5-8.95"/><polygon class="cls-36" points="180.35 130.72 175.97 128.17 93.56 175.83 97.94 178.38 180.35 130.72"/><path class="cls-60" d="M129.86,215.86a17.62,17.62,0,0,1,9-2.68l-2.63,7.4a12.43,12.43,0,0,0-6.41,1.9c-7.66,4.42-13.86,15.15-13.83,24s6.26,12.36,13.93,7.94a25.34,25.34,0,0,0,6.62-5.77l2.76,4.22A35.56,35.56,0,0,1,130,261c-10.84,6.27-19.67,1.24-19.7-11.22S119,222.13,129.86,215.86Z"/><path class="cls-36" d="M138.91,213.18c6.31.12,10.63,5.19,10.65,13.91,0,8.55-4.1,18.4-10.21,25.75l-2.76-4.22c4.32-5.19,7.23-12.15,7.21-18.2s-3.07-9.76-7.52-9.84Z"/><path class="cls-10" d="M122.53,182.71v3.71l-4.24,6.22c2.65-1.28,4.84-.18,4.85,3.24s-2.51,8.12-6.74,10.56c-4,2.3-6.51.8-6.82-2.4l4-3.18c.08,1.69,1.14,2.44,2.75,1.51a5.15,5.15,0,0,0,2.57-4.19c0-1.88-1.29-1.94-2.5-1.23a6.14,6.14,0,0,0-1.53,1.33l-1.81-2.12,4.22-6.42-7.18,4.14v-4Z"/><path class="cls-10" d="M137.86,176.77c1.19,1.38,1.52,3.66,1.53,6.1a19.33,19.33,0,0,1-1.49,7.84,14.19,14.19,0,0,1-5.84,6.76c-2.78,1.6-4.69,1.26-5.83,0s-1.52-3.67-1.53-6.1a19.13,19.13,0,0,1,1.49-7.84,14.13,14.13,0,0,1,5.81-6.74C134.84,175.14,136.72,175.45,137.86,176.77ZM134.56,190a14.61,14.61,0,0,0,.64-4.67,8.48,8.48,0,0,0-.67-3.91c-.5-.81-1.22-1.12-2.52-.37a5.82,5.82,0,0,0-2.51,3.27,14.3,14.3,0,0,0-.62,4.66,8.55,8.55,0,0,0,.65,3.92c.5.8,1.24,1.11,2.52.37a5.8,5.8,0,0,0,2.51-3.27"/><path class="cls-10" d="M149.78,171.67a9.59,9.59,0,0,1-4.49,7.64c-2.46,1.42-4.45.32-4.46-2.48a9.8,9.8,0,0,1,4.46-7.64C147.73,167.78,149.77,168.87,149.78,171.67Zm-6.09,3.51c0,1.22.7,1.6,1.62,1.07a3.49,3.49,0,0,0,1.59-2.92c0-1.19-.67-1.57-1.6-1a3.43,3.43,0,0,0-1.61,2.88"/><polygon class="cls-10" points="155.67 163.57 159.08 161.6 147.09 188.3 143.71 190.25 155.67 163.57"/><path class="cls-10" d="M157.42,172.61c2.44-1.4,4.48-.33,4.49,2.47a9.59,9.59,0,0,1-4.49,7.64c-2.46,1.42-4.45.32-4.46-2.47A9.82,9.82,0,0,1,157.42,172.61Zm0,7a3.44,3.44,0,0,0,1.58-2.92c0-1.18-.66-1.57-1.59-1a3.4,3.4,0,0,0-1.61,2.88c0,1.22.7,1.61,1.62,1.07"/><polygon class="cls-61" points="583.5 475.12 553.02 470.56 543.06 501.76 576.04 505.23 583.5 475.12"/><polygon class="cls-10" points="572.28 480.11 542.55 471.99 528.98 501.79 561.32 509.13 572.28 480.11"/></g></g></g></svg>